<?xml version="1.0" standalone="no"?><!DOCTYPE svg PUBLIC "-//W3C//DTD SVG 1.1//EN" "http://www.w3.org/Graphics/SVG/1.1/DTD/svg11.dtd"><svg t="1703857097789" class="icon" viewBox="0 0 1027 1024" version="1.1" xmlns="http://www.w3.org/2000/svg" p-id="25810" xmlns:xlink="http://www.w3.org/1999/xlink" width="128.375" height="128"><path d="M723.069073 442.959896c0 147.666131 52.384354 271.821175-214.624609 267.421439-118.517882-1.924884-214.62461-119.755308-214.62461-267.421439s96.24422-267.421439 214.62461-267.421439 214.62461 119.755308 214.624609 267.421439z" fill="#F4E347" p-id="25811"></path><path d="M737.368215 693.607343A34.510427 34.510427 0 0 1 702.857787 661.84675l-17.323959-243.0854a225.486458 225.486458 0 0 0-449.73549 0l-10.449372 145.603755a34.510427 34.510427 0 1 1-68.745871-4.949703L166.777484 414.361614a294.644804 294.644804 0 0 1 587.639707 0l17.323959 242.810417a34.647919 34.647919 0 0 1-32.035576 36.985279h-2.474851" p-id="25812"></path><path d="M778.478246 728.255262H155.778144a34.647919 34.647919 0 1 1 0-68.745871h622.700102a34.647919 34.647919 0 1 1 0 68.745871" p-id="25813"></path><path d="M464.172122 829.999151A172.82712 172.82712 0 0 1 297.532131 703.094273a34.647919 34.647919 0 0 1 33.410493-43.584882h266.321505A34.647919 34.647919 0 0 1 630.674623 703.094273a172.689629 172.689629 0 0 1-166.502501 127.179862m-75.345474-101.74389a103.531282 103.531282 0 0 0 151.240916 0zM533.330469 209.361426a34.510427 34.510427 0 0 1-34.647919-34.647919v-68.745871a34.647919 34.647919 0 1 0-68.745871 0v68.745871a34.647919 34.647919 0 1 1-68.745872 0v-68.745871a103.806266 103.806266 0 1 1 207.47504 0v68.745871a34.647919 34.647919 0 0 1-34.647919 34.647919" p-id="25814"></path></svg>